<svg width="20" height="20" viewBox="0 0 20 20" fill="none" xmlns="http://www.w3.org/2000/svg">
<path d="M18.7509 10.1943C18.7509 9.47489 18.6913 8.94989 18.5624 8.40546H10.1794V11.6526H15.1C15.0009 12.4596 14.4652 13.6749 13.2747 14.4915L13.258 14.6002L15.9085 16.6125L16.0921 16.6305C17.7786 15.104 18.7509 12.8582 18.7509 10.1943Z" fill="#4285F4"/>
<path d="M10.1788 18.75C12.5895 18.75 14.6133 17.9722 16.0915 16.6305L13.274 14.4916C12.5201 15.0068 11.5081 15.3666 10.1788 15.3666C7.81773 15.3666 5.81379 13.8402 5.09944 11.7305L4.99473 11.7392L2.23868 13.8295L2.20264 13.9277C3.67087 16.786 6.68674 18.75 10.1788 18.75Z" fill="#34A853"/>
<path d="M5.10014 11.7305C4.91165 11.1861 4.80257 10.6027 4.80257 9.99998C4.80257 9.39716 4.91165 8.81385 5.09022 8.26941L5.08523 8.15346L2.29464 6.0296L2.20333 6.07216C1.5982 7.25829 1.25098 8.59026 1.25098 9.99998C1.25098 11.4097 1.5982 12.7416 2.20333 13.9277L5.10014 11.7305Z" fill="#FBBC05"/>
<path d="M10.1789 4.63331C11.8554 4.63331 12.9864 5.34303 13.6312 5.93612L16.1511 3.525C14.6035 2.11528 12.5895 1.25 10.1789 1.25C6.68676 1.25 3.67088 3.21387 2.20264 6.07218L5.08953 8.26943C5.81381 6.15972 7.81776 4.63331 10.1789 4.63331Z" fill="#EB4335"/>
</svg>
