<svg width="30" height="31" viewBox="0 0 30 31" fill="none" xmlns="http://www.w3.org/2000/svg">
<path d="M10.2808 23.502V23.502C10.2808 19.6298 13.4198 16.4907 17.292 16.4907H18.91L19.3577 17.0877C20.9554 19.2179 23.8805 19.8417 26.2082 18.5485V18.5485C26.5634 18.3512 26.9999 18.608 26.9999 19.0143V23.502M10.2808 23.502H26.9999M10.2808 23.502V26.1986H26.9999V23.502" stroke="#0E283A" stroke-width="2" stroke-linejoin="round"/>
<path d="M19.7191 16.9438V14.2472C19.7191 13.6515 19.2362 13.1685 18.6404 13.1685V13.1685M11.0899 19.1011H4.5C3.67157 19.1011 3 18.4296 3 17.6011V14.2472C3 13.6515 3.48293 13.1685 4.07865 13.1685V13.1685M18.6404 13.1685V11.2809C18.6404 7.25977 15.3807 4 11.3596 4V4C7.33842 4 4.07865 7.25977 4.07865 11.2809V13.1685M18.6404 13.1685H4.07865" stroke="#0E283A" stroke-width="2" stroke-linecap="round" stroke-linejoin="round"/>
</svg>
