<svg width="30" height="31" viewBox="0 0 30 31" fill="none" xmlns="http://www.w3.org/2000/svg">
<path d="M11.4545 5H18.5455M11.4545 5V5C7.69357 5 4.47378 7.6965 3.81364 11.3991L2 21.5714L6.92424 22.7143M11.4545 5C11.4545 5 10.8636 9.57143 15 9.57143M18.5455 5V5C22.3064 5 25.5262 7.6965 26.1864 11.3991L28 21.5714L23.0758 22.7143M18.5455 5C18.5455 5 19.1364 9.57143 15 9.57143M23.0758 22.7143L23.2727 25H15M23.0758 22.7143L22.0909 15.2857M6.92424 22.7143L6.72727 25H15M6.92424 22.7143L7.90909 15.2857M15 25V9.57143" stroke="#0E283A" stroke-width="2" stroke-linecap="round" stroke-linejoin="round"/>
</svg>
