<svg width="332" height="72" viewBox="0 0 332 72" fill="none" xmlns="http://www.w3.org/2000/svg">
<g filter="url(#filter0_d_101_6)">
<rect x="10" y="10" width="312" height="52" rx="26" fill="white" shape-rendering="crispEdges"/>
<path d="M109.751 36.1944C109.751 35.475 109.691 34.95 109.562 34.4055H101.179V37.6527H106.1C106.001 38.4597 105.465 39.675 104.275 40.4916L104.258 40.6003L106.908 42.6126L107.092 42.6305C108.779 41.1041 109.751 38.8583 109.751 36.1944" fill="#4285F4"/>
<path d="M101.179 44.75C103.59 44.75 105.613 43.9722 107.092 42.6305L104.274 40.4916C103.52 41.0068 102.508 41.3666 101.179 41.3666C98.8178 41.3666 96.8138 39.8402 96.0995 37.7305L95.9948 37.7392L93.2387 39.8295L93.2027 39.9277C94.6709 42.786 97.6868 44.75 101.179 44.75Z" fill="#34A853"/>
<path d="M96.1 37.7305C95.9115 37.186 95.8024 36.6027 95.8024 35.9999C95.8024 35.3971 95.9115 34.8138 96.0901 34.2694L96.0851 34.1534L93.2945 32.0295L93.2032 32.0721C92.5981 33.2582 92.2509 34.5902 92.2509 35.9999C92.2509 37.4096 92.5981 38.7415 93.2032 39.9277L96.1 37.7305" fill="#FBBC05"/>
<path d="M101.179 30.6333C102.855 30.6333 103.986 31.343 104.631 31.9361L107.151 29.525C105.604 28.1153 103.59 27.25 101.179 27.25C97.6868 27.25 94.6709 29.2139 93.2027 32.0722L96.0896 34.2694C96.8139 32.1597 98.8178 30.6333 101.179 30.6333" fill="#EB4335"/>
<path d="M127.531 33.3691H130.203C129.852 30.8643 127.645 29.0977 124.771 29.0977C121.414 29.0977 118.83 31.5234 118.83 35.6543C118.83 39.6797 121.256 42.1758 124.824 42.1758C128.032 42.1758 130.326 40.1367 130.326 36.7969V35.2148H125.018V37.2012H127.777C127.742 38.8008 126.661 39.8291 124.842 39.8379C122.811 39.8291 121.519 38.3086 121.519 35.6191C121.519 32.9473 122.855 31.4443 124.824 31.4355C126.213 31.4443 127.171 32.1738 127.531 33.3691ZM136.088 42.1934C138.98 42.1846 140.773 40.207 140.781 37.2539C140.773 34.3096 138.98 32.332 136.088 32.332C133.205 32.332 131.403 34.3096 131.412 37.2539C131.403 40.207 133.205 42.1846 136.088 42.1934ZM134.049 37.2539C134.049 35.5752 134.743 34.3184 136.106 34.3184C137.433 34.3184 138.136 35.5752 138.127 37.2539C138.136 38.9238 137.433 40.1631 136.106 40.1719C134.743 40.1631 134.049 38.9238 134.049 37.2539ZM146.297 42.1934C149.189 42.1846 150.982 40.207 150.991 37.2539C150.982 34.3096 149.189 32.332 146.297 32.332C143.414 32.332 141.613 34.3096 141.621 37.2539C141.613 40.207 143.414 42.1846 146.297 42.1934ZM144.258 37.2539C144.258 35.5752 144.953 34.3184 146.315 34.3184C147.642 34.3184 148.345 35.5752 148.336 37.2539C148.345 38.9238 147.642 40.1631 146.315 40.1719C144.953 40.1631 144.258 38.9238 144.258 37.2539ZM156.506 45.7793C159.222 45.7793 161.138 44.54 161.147 42.1055V32.4551H158.563V34.0547H158.458C158.106 33.2812 157.333 32.332 155.733 32.332C153.624 32.332 151.848 33.9404 151.848 37.166C151.848 40.3477 153.58 41.8682 155.733 41.8594C157.271 41.8682 158.115 41.0859 158.458 40.3125H158.581V42.0527C158.572 43.3799 157.763 43.8984 156.559 43.8984C155.522 43.8984 154.801 43.5557 154.661 42.791H152.094C152.244 44.5928 153.87 45.7793 156.506 45.7793ZM154.52 37.2012C154.511 35.5576 155.214 34.4062 156.542 34.4062C157.851 34.4062 158.581 35.5049 158.581 37.2012C158.581 38.8975 157.842 39.8994 156.542 39.9082C155.223 39.8994 154.511 38.8535 154.52 37.2012ZM165.362 29.2734H162.761V42H165.362V29.2734ZM171.3 42.1934C173.655 42.1846 175.237 41.042 175.606 39.2754H173.128C172.873 39.8467 172.24 40.2334 171.353 40.2422C170.008 40.2334 169.155 39.3457 169.155 37.9043H175.677V37.166C175.677 33.9141 173.699 32.332 171.194 32.332C168.399 32.332 166.58 34.3271 166.589 37.2715C166.58 40.2949 168.373 42.1846 171.3 42.1934ZM169.155 36.2695C169.208 35.1709 170.052 34.2744 171.247 34.2832C172.407 34.2744 173.207 35.1094 173.216 36.2695H169.155ZM190.825 40.3301H184.304V37.377H189.384V36.2344H179.681V33.6855H189.015V28.957H178.275V30.0996H187.661V32.5605H178.31V37.377H182.95V40.3301H176.517V41.4902H190.825V40.3301ZM210.084 40.3301H203.562V37.377H208.642V36.2344H198.939V33.6855H208.273V28.957H197.533V30.0996H206.92V32.5605H197.568V37.377H202.209V40.3301H195.775V41.4902H210.084V40.3301ZM223.246 29.4668H212.471V30.6094H221.892V31.0312C221.892 32.9473 221.892 35.2852 221.26 38.4844L222.666 38.625C223.246 35.2236 223.246 33 223.246 31.0312V29.4668ZM210.924 41.1211H225.162V39.9785H210.924V41.1211ZM238.975 27.8145H237.604V39.2402H238.975V27.8145ZM226.441 32.7363C226.433 35.0127 228.199 36.5947 230.537 36.5859C232.875 36.5947 234.624 35.0127 234.633 32.7363C234.624 30.4863 232.875 28.9131 230.537 28.9043C228.199 28.9131 226.433 30.4863 226.441 32.7363ZM227.795 32.7363C227.777 31.207 228.955 30.1172 230.537 30.1172C232.093 30.1172 233.279 31.207 233.279 32.7363C233.279 34.292 232.093 35.373 230.537 35.373C228.955 35.373 227.777 34.292 227.795 32.7363ZM228.885 43.0898H239.467V41.9297H230.256V38.0801H228.885V43.0898Z" fill="black"/>
</g>
<defs>
<filter id="filter0_d_101_6" x="0" y="0" width="332" height="72" filterUnits="userSpaceOnUse" color-interpolation-filters="sRGB">
<feFlood flood-opacity="0" result="BackgroundImageFix"/>
<feColorMatrix in="SourceAlpha" type="matrix" values="0 0 0 0 0 0 0 0 0 0 0 0 0 0 0 0 0 0 127 0" result="hardAlpha"/>
<feOffset/>
<feGaussianBlur stdDeviation="5"/>
<feComposite in2="hardAlpha" operator="out"/>
<feColorMatrix type="matrix" values="0 0 0 0 0 0 0 0 0 0 0 0 0 0 0 0 0 0 0.1 0"/>
<feBlend mode="normal" in2="BackgroundImageFix" result="effect1_dropShadow_101_6"/>
<feBlend mode="normal" in="SourceGraphic" in2="effect1_dropShadow_101_6" result="shape"/>
</filter>
</defs>
</svg>
