<svg width="230" height="51" viewBox="0 0 230 51" fill="none" xmlns="http://www.w3.org/2000/svg">
<g clip-path="url(#clip0_3662_8934)">
<path d="M57.895 7.50817L53.3151 37.4426C52.4853 42.836 56.5386 47.7049 61.8526 47.7049H93.0182L94.7576 36.3115H68.5548C67.2303 36.3115 66.209 35.0983 66.4165 33.7541L67.1186 29.1803H93.4012L95.0129 18.5246H68.7942L69.5921 13.2623C69.7517 12.1803 70.6613 11.377 71.7304 11.377H98.6672L100.407 -0.0164185H66.4644C62.2036 -0.0164185 58.5812 3.16391 57.9269 7.49178L57.895 7.50817Z" fill="white"/>
<path d="M0 47.7049H13.2929L14.7769 39.459L2.90432 31.5738L0 47.7049Z" fill="white"/>
<path d="M33.5593 0H15.6546C11.5535 0 8.04274 3 7.30868 7.13115L3.55859 27.9836L18.0164 21.5574L19.7558 11.9508C19.9473 10.918 20.8249 10.1639 21.8462 10.1639H31.8358C36.0966 10.1639 40.2137 12.1311 39.1286 18.2459C38.1871 23.2787 34.6444 25.6885 29.0911 25.6885H22.7718L24.5272 21.541L15.7184 25.459L5.17033 30.1475L13.8514 35.9016L20.442 40.2623L20.5537 35.7541H24.208L32.0114 47.7049H48.1128L37.6445 33.1967C45.017 30.7213 51.1448 25.5574 52.6608 17.0492C54.863 4.5082 46.1979 0 33.5593 0Z" fill="white"/>
<path d="M148.264 13.2295C148.44 12.1639 149.365 11.3934 150.45 11.3934H166.552L168.435 0H144.865C140.509 0 136.79 3.13115 136.12 7.37705L133.822 21.8033H127.216L125.46 32.9508H132.035L129.673 47.7213H142.759L145.136 32.9508H160.264L162.084 21.8033H146.892L148.28 13.2459L148.264 13.2295Z" fill="white"/>
<path d="M164.892 47.7049H177.977L183.355 14.9508H170.27L164.892 47.7049Z" fill="white"/>
<path d="M170.732 11.9672H183.818L185.653 0H172.584L170.732 11.9672Z" fill="white"/>
<path d="M107.284 17.5082H119.412L121.136 6.42621H109.008L107.284 17.5082Z" fill="white"/>
<path d="M102.848 40.3771H114.976L116.684 29.2951H104.572L102.848 40.3771Z" fill="white"/>
<path d="M216.691 31.8361L217.744 36.0984C215.415 36.6885 212.941 37.0492 210.579 37.0492C205.696 37.0492 204.499 35.5246 204.946 31.6558L206.734 20.4754H224.048L225.691 10.5082H208.218L210.005 0.0164185H196.01L194.59 10.5082H187.393L185.749 20.4754H193.09L191.302 31.6558C190.121 42.7705 196.345 48.0164 206.861 48.0164C212.43 48.0164 216.851 47.2623 220.234 46.2623L221.399 51L230 37.8361L216.707 31.8361H216.691Z" fill="white"/>
</g>
<defs>
<clipPath id="clip0_3662_8934">
<rect width="230" height="51" fill="white"/>
</clipPath>
</defs>
</svg>
