<svg width="208" height="194" viewBox="0 0 208 194" fill="none" xmlns="http://www.w3.org/2000/svg">
<g clip-path="url(#clip0_3491_8939)">
<path d="M56.9646 111.413C63.1343 111.413 72.2788 113.22 79.3484 116.706L85.2611 100.163C77.806 96.4191 66.6049 93.9662 57.4787 93.9662C31.8814 93.9662 18.1096 107.024 16.3101 123.678L15.6674 129.487H2.29952L0.5 147.063H13.8862L9.25889 192.156H32.9281L37.684 147.063H62.3815L64.181 129.487H39.4835L40.1262 123.678C40.8974 117.093 46.0389 111.395 56.9829 111.395L56.9646 111.413Z" fill="white"/>
<path d="M107.682 101.104C94.6812 101.104 89.4111 104.847 89.4111 113.903C89.4111 120.1 93.3958 123.198 105.368 123.198C118.369 123.198 123.639 119.454 123.639 110.27C123.639 104.202 119.654 101.104 107.682 101.104Z" fill="white"/>
<path d="M85.6836 194H109.481L116.037 131.35H92.239L85.6836 194Z" fill="white"/>
<path d="M207.5 165.451L184.492 155.307L186.64 163.864C181.664 165.451 176.027 166.41 170.702 166.41C162.218 166.41 160.162 163.828 160.933 157.243L162.989 138.247H194.114L195.913 121.317H164.789L166.588 103.483L142.277 109.938L141.12 121.298H129.404L127.605 138.229H139.302L137.245 157.225C135.189 176.092 145.986 185 164.256 185C175.917 185 184.749 183.137 190.919 180.942L192.626 187.711L207.5 165.451Z" fill="white"/>
<path d="M194.738 53.3182C193.49 38.6377 178.322 25.8015 155.645 27.7564C127.697 30.154 112.309 46.5128 114.2 68.7732C115.706 86.5337 131.406 96.6034 156.526 94.4456C180.489 92.3985 194.72 81.9599 194.94 69.4925L171.62 71.4843C171.602 74.2139 166.478 77.884 156.875 78.7139C146.243 79.6176 138.714 76.1135 137.502 68.054L193.765 63.2404C194.5 61.2301 194.995 56.5272 194.72 53.2997L194.738 53.3182ZM171.84 52.8202L136.841 55.8264C138.09 50.6624 143.654 44.8713 155.185 43.8754C165.432 42.9902 171.987 47.1029 171.822 52.8202H171.84Z" fill="white"/>
<path d="M38.1065 85.1874L38.9695 79.8021L17.9078 63.8675L12.7847 96.2715C19.3401 91.0153 27.7868 87.1608 38.1065 85.1874Z" fill="white"/>
<path d="M104.946 94.0399L87.924 67.1503C100.98 62.1339 111.869 51.7137 114.568 34.4696C118.534 9.1292 103.165 0 80.7442 0H27.9889L19.0464 56.601L44.6804 43.6173L48.3529 20.5822H77.6777C85.2247 20.5822 92.533 24.5658 90.6049 36.9225C88.9339 47.0845 82.6723 51.9719 72.7933 51.9719H55.9182L59.0398 43.5804L43.4134 51.4923L24.702 60.972L40.0898 72.6094L51.7683 81.4435L51.9519 72.3143H64.0895L71.9119 85.9804C82.1031 86.7919 93.8734 89.9825 102.614 94.2428C103.348 94.169 104.12 94.1137 104.946 94.0768V94.0399Z" fill="white"/>
</g>
<defs>
<clipPath id="clip0_3491_8939">
<rect width="207" height="194" fill="white" transform="translate(0.5)"/>
</clipPath>
</defs>
</svg>
