<svg width="30" height="31" viewBox="0 0 30 31" fill="none" xmlns="http://www.w3.org/2000/svg">
<path d="M4.15046 8.99669C6.29786 7.26561 8.73772 5.97587 11.3416 5.19534C13.5283 7.45308 16.4719 7.45302 18.6586 5.19534C21.2625 5.97587 23.7023 7.26567 25.8496 8.99683L28.6506 11.2549C28.8697 11.4316 28.9109 11.7613 28.7425 11.9912L24.737 17.4598C24.5686 17.6898 24.2544 17.7329 24.0352 17.5562L22.9356 16.6697L23.2074 24.9977C23.2171 25.2945 22.9904 25.5407 22.7073 25.5407H7.2929C7.00979 25.5407 6.78305 25.2945 6.79274 24.9977L7.0646 16.6693L5.96449 17.5562C5.74532 17.7329 5.43114 17.6897 5.26274 17.4597L1.25745 11.9909C1.08905 11.761 1.1302 11.4314 1.34937 11.2547L4.15046 8.99669Z" stroke="#0E283A" stroke-width="2" stroke-linejoin="round"/>
</svg>
