<svg width="26" height="26" viewBox="0 0 26 26" fill="none" xmlns="http://www.w3.org/2000/svg">
<path d="M13 1.36798H21.9444C22.6222 1.36798 23.2722 1.63723 23.7515 2.11649C24.2308 2.59575 24.5 3.24576 24.5 3.92354V21.8124C24.5 22.4902 24.2308 23.1402 23.7515 23.6195C23.2722 24.0987 22.6222 24.368 21.9444 24.368H13M13 1.36798H4.05556C3.37778 1.36798 2.72776 1.63723 2.2485 2.11649C1.76925 2.59575 1.5 3.24576 1.5 3.92354V21.8124C1.5 22.4902 1.76925 23.1402 2.2485 23.6195C2.72776 24.0987 3.37778 24.368 4.05556 24.368H13M13 1.36798V24.368" stroke="black" stroke-width="1.5" stroke-linecap="round" stroke-linejoin="round"/>
<line x1="16.25" y1="10.118" x2="16.25" y2="13.618" stroke="black" stroke-width="1.5" stroke-linecap="round"/>
<line x1="9.25" y1="10.118" x2="9.25" y2="13.618" stroke="black" stroke-width="1.5" stroke-linecap="round"/>
</svg>
