<svg width="414" height="414" viewBox="0 0 414 414" fill="none" xmlns="http://www.w3.org/2000/svg">
<rect width="414" height="414" fill="#E7E7E7"/>
<path d="M263.833 223.167C263.833 225.907 262.745 228.536 260.807 230.473C258.869 232.411 256.241 233.5 253.5 233.5H160.5C157.759 233.5 155.131 232.411 153.193 230.473C151.255 228.536 150.167 225.907 150.167 223.167V166.333C150.167 163.593 151.255 160.964 153.193 159.027C155.131 157.089 157.759 156 160.5 156H181.167L191.5 140.5H222.5L232.833 156H253.5C256.241 156 258.869 157.089 260.807 159.027C262.745 160.964 263.833 163.593 263.833 166.333V223.167Z" stroke="black" stroke-opacity="0.3" stroke-width="3" stroke-linecap="round" stroke-linejoin="round"/>
<path d="M207 212.833C218.414 212.833 227.667 203.581 227.667 192.167C227.667 180.753 218.414 171.5 207 171.5C195.586 171.5 186.333 180.753 186.333 192.167C186.333 203.581 195.586 212.833 207 212.833Z" stroke="black" stroke-opacity="0.3" stroke-width="3" stroke-linecap="round" stroke-linejoin="round"/>
<path d="M142.377 259.232H136.154V258.072C139.09 257.853 140.891 256.728 140.9 254.996C140.891 253.036 138.641 251.894 135.082 251.885C131.54 251.894 129.246 253.036 129.246 254.996C129.246 256.719 131.065 257.835 133.957 258.063V259.232H127.787V261.008H142.377V259.232ZM128.771 265.824L129.615 267.547C132.199 267.195 134.08 266.176 135.073 264.717C136.057 266.176 137.938 267.195 140.549 267.547L141.392 265.824C137.868 265.402 136.198 263.794 136.207 262.08V261.781H133.939V262.08C133.922 263.794 132.252 265.402 128.771 265.824ZM131.584 254.996C131.566 254.073 132.841 253.59 135.082 253.607C137.288 253.59 138.58 254.073 138.58 254.996C138.58 255.919 137.288 256.358 135.082 256.35C132.841 256.358 131.566 255.919 131.584 254.996ZM152.565 255.242V252.852H150.315V255.242C150.315 258.213 149.04 261.271 146.324 262.52L147.713 264.33C149.524 263.434 150.754 261.737 151.457 259.672C152.116 261.597 153.277 263.179 154.991 264.031L156.344 262.238C153.778 260.999 152.556 258.107 152.565 255.242ZM157.047 267.617H159.297V259.689H161.653V257.791H159.297V251.621H157.047V267.617ZM168.065 254.785V254.557H171.282V252.764H162.493V254.557H165.78V254.785C165.78 256.807 164.558 258.89 161.895 259.742L163.055 261.5C164.936 260.876 166.237 259.619 166.966 258.037C167.687 259.479 168.944 260.63 170.737 261.201L171.879 259.443C169.251 258.644 168.056 256.692 168.065 254.785ZM164.497 267.336H175.641V265.543H166.764V262.15H164.497V267.336ZM172.969 263.205H175.219V251.639H172.969V263.205ZM184.268 251.85C180.577 251.85 178.432 252.816 178.432 254.574C178.432 256.358 180.577 257.316 184.268 257.316C187.951 257.316 190.078 256.358 190.087 254.574C190.078 252.816 187.951 251.85 184.268 251.85ZM176.973 259.848H191.563V258.072H176.973V259.848ZM178.661 262.414H187.573V263.293H178.678V267.512H190.21V265.824H180.876V264.857H189.788V260.779H178.661V262.414ZM180.788 254.574C180.779 253.862 181.922 253.484 184.268 253.484C186.633 253.484 187.766 253.862 187.766 254.574C187.766 255.356 186.633 255.664 184.268 255.664C181.922 255.664 180.779 255.356 180.788 254.574ZM210.487 258.934H195.862V260.762H210.487V258.934ZM197.532 264.664C197.532 266.554 199.642 267.626 203.14 267.617C206.611 267.626 208.694 266.554 208.712 264.664C208.694 262.783 206.611 261.72 203.14 261.729C199.642 261.72 197.532 262.783 197.532 264.664ZM197.638 257.809H208.817V256.033H199.87V253.854H208.73V252.043H197.638V257.809ZM199.817 264.664C199.809 263.855 200.925 263.434 203.14 263.434C205.311 263.434 206.453 263.855 206.462 264.664C206.453 265.508 205.311 265.912 203.14 265.912C200.925 265.912 199.809 265.508 199.817 264.664ZM225.636 260.199H219.431V259.039H224.159V257.316H215.054V256.262H223.861V251.92H212.786V253.66H221.611V254.645H212.822V259.039H217.199V260.199H210.993V261.992H225.636V260.199ZM212.628 264.664H221.681V267.547H223.949V262.906H212.628V264.664ZM233.876 254.064H231.134V252.061H228.919V254.064H226.142V255.84H233.876V254.064ZM226.511 260.357C226.511 262.59 228.005 264.172 230.044 264.172C232.092 264.172 233.551 262.59 233.56 260.357C233.551 258.134 232.092 256.569 230.044 256.561C228.005 256.569 226.511 258.134 226.511 260.357ZM228.48 260.357C228.48 259.153 229.113 258.424 230.044 258.424C230.941 258.424 231.583 259.153 231.591 260.357C231.583 261.579 230.941 262.273 230.044 262.273C229.113 262.273 228.48 261.579 228.48 260.357ZM234.474 266.932H236.566V259.918H237.867V267.617H239.994V251.621H237.867V258.125H236.566V251.938H234.474V266.932ZM255.898 260.445H241.308V262.238H247.461V267.617H249.676V262.238H255.898V260.445ZM242.029 257.756L242.855 259.514C245.641 259.136 247.636 257.94 248.612 256.297C249.579 257.94 251.592 259.136 254.404 259.514L255.213 257.756C251.926 257.36 250.159 255.796 249.93 254.223H254.597V252.465H242.627V254.223H247.294C247.056 255.796 245.263 257.36 242.029 257.756ZM261.59 255.646V252.992H259.41V255.752C259.41 258.459 258.531 261.28 256.158 262.748L257.529 264.4C258.979 263.521 259.937 262.001 260.509 260.19C261.018 261.825 261.889 263.214 263.277 264.049L264.49 262.309C262.302 260.911 261.581 258.239 261.59 255.646ZM262.803 258.846H264.877V266.879H266.969V251.85H264.877V257.018H262.803V258.846ZM268.182 267.617H270.326V251.621H268.182V267.617ZM286.248 263.908H282.996V259.944C284.2 259.197 284.921 258.081 284.93 256.701C284.921 254.108 282.363 252.403 278.901 252.395C275.42 252.403 272.889 254.108 272.889 256.701C272.889 258.107 273.636 259.241 274.875 259.988V263.908H271.606V265.754H286.248V263.908ZM275.104 256.701C275.104 255.093 276.607 254.161 278.901 254.17C281.159 254.161 282.706 255.093 282.715 256.701C282.706 258.266 281.159 259.232 278.901 259.232C276.607 259.232 275.104 258.266 275.104 256.701ZM277.09 263.908V260.806C277.652 260.911 278.259 260.973 278.901 260.973C279.542 260.973 280.157 260.911 280.729 260.797V263.908H277.09Z" fill="black" fill-opacity="0.3"/>
</svg>
