<svg width="17" height="21" viewBox="0 0 17 21" fill="none" xmlns="http://www.w3.org/2000/svg">
<path d="M8.73154 5.11053C9.60522 5.11053 10.7105 4.5 11.3631 3.68947C11.9526 2.95263 12.3842 1.92105 12.3842 0.889474C12.3842 0.752632 12.3736 0.605263 12.3421 0.5C11.3631 0.542105 10.1947 1.17368 9.48944 2.02632C8.93154 2.67895 8.42628 3.68947 8.42628 4.73158C8.42628 4.87895 8.44733 5.03684 8.46838 5.08947C8.53154 5.1 8.62628 5.11053 8.73154 5.11053V5.11053ZM5.64733 20.5C6.84733 20.5 7.37365 19.6684 8.86838 19.6684C10.3631 19.6684 10.721 20.4684 12.0473 20.4684C13.3736 20.4684 14.2263 19.2263 15.0579 18.0053C15.9842 16.6053 16.3631 15.2368 16.3947 15.1737C16.3105 15.1526 13.8052 14.0895 13.8052 11.1316C13.8052 8.56316 15.7842 7.40526 15.8894 7.32105C14.5842 5.38421 12.5947 5.34211 12.0579 5.34211C10.5947 5.34211 9.3947 6.25789 8.6368 6.25789C7.82628 6.25789 6.75259 5.39474 5.47891 5.39474C3.05786 5.38421 0.605225 7.44737 0.605225 11.3316C0.605225 13.7421 1.52101 16.3 2.6368 17.9526C3.5947 19.3526 4.4368 20.5 5.64733 20.5V20.5Z" fill="black"/>
</svg>
